<svg baseProfile="basic" xmlns="http://www.w3.org/2000/svg" width="155.906" height="42.601"><path fill="#4BC1EC" d="M32.18 29.64a3.492 3.492 0 00-.343 2.652 3.48 3.48 0 001.623 2.123c.835.482 1.79.58 2.658.348a3.482 3.482 0 002.469-4.281 3.475 3.475 0 00-1.623-2.123 3.494 3.494 0 00-2.658-.346 3.48 3.48 0 00-2.124 1.629l-.002-.002zm-2.833 4.884a14.278 14.278 0 01-3.003 1.693 14.133 14.133 0 01-5.411 1.08 14.452 14.452 0 01-5.055-.934c-.513-.195-.95-.441-1.445-.699-.414-.215-.508-.789-.168-1.168.192-.211.231-.268.417-.484l.56-.648c.275-.32.687-.484 1.213-.211.286.152.485.24.801.354a10.695 10.695 0 003.675.631 10.955 10.955 0 007.636-3.084 6.631 6.631 0 01.885-2.988v-.006a6.63 6.63 0 014.038-3.098 6.612 6.612 0 013.63.055 16.25 16.25 0 00-1-7.776 16.277 16.277 0 00-6.167-7.669 8.54 8.54 0 00-.582-.35c-.513-.296-.596-.732-.475-1.136l.247-.821c.082-.274.109-.337.186-.613.135-.49.67-.719 1.074-.486.514.296 1.013.576 1.501.909a19.42 19.42 0 017.157 9.009 19.447 19.447 0 01.978 10.731 6.64 6.64 0 01.93 7.893 6.634 6.634 0 01-9.08 2.437 6.651 6.651 0 01-2.542-2.621z"/><path fill="#FBBF00" d="M20.932 10.146c.964 0 1.837-.391 2.469-1.023s1.023-1.505 1.023-2.469-.391-1.837-1.023-2.469-1.505-1.023-2.469-1.023-1.837.391-2.469 1.023-1.023 1.504-1.023 2.468.391 1.837 1.022 2.469 1.506 1.024 2.47 1.024zm5.652.02a14.285 14.285 0 012.966 1.753 14.15 14.15 0 013.642 4.146c.507.878.92 1.825 1.235 2.822.211.668.373 1.344.483 2.022.088.542.093 1.043.117 1.603.021.465-.43.834-.927.729-.279-.061-.348-.066-.629-.119l-.842-.16c-.414-.078-.762-.354-.788-.945a5.454 5.454 0 00-.094-.872 10.724 10.724 0 00-1.293-3.498 11.002 11.002 0 00-2.829-3.231 10.966 10.966 0 00-3.656-1.838 6.622 6.622 0 01-3.036.732c-1.837 0-3.5-.745-4.705-1.949a6.644 6.644 0 01-1.771-3.171 16.259 16.259 0 00-6.23 4.751 16.284 16.284 0 00-3.558 9.176c-.015.23-.016.447-.012.68 0 .592-.336.881-.746.979l-.834.195c-.278.066-.347.074-.623.146-.492.129-.958-.221-.958-.688 0-.592-.008-1.164.037-1.754a19.416 19.416 0 014.224-10.703 19.451 19.451 0 018.798-6.21 6.66 6.66 0 011.675-2.811C17.432.745 19.095 0 20.932 0s3.5.745 4.705 1.949a6.634 6.634 0 011.949 4.705 6.625 6.625 0 01-1.002 3.512z"/><path fill="#E42271" d="M9.678 29.636a3.485 3.485 0 00-2.121-1.623 3.485 3.485 0 00-2.652.346l-.001-.002-.004.001a3.485 3.485 0 00-1.623 2.123 3.496 3.496 0 00.246 2.471l.02.021.081.16a3.49 3.49 0 002.123 1.629c.866.23 1.818.135 2.651-.348a3.478 3.478 0 001.628-2.123 3.48 3.48 0 00-.346-2.65l-.002-.005zM29.36 40.681a19.432 19.432 0 01-11.381 1.693 19.45 19.45 0 01-9.78-4.518 6.638 6.638 0 01-7.185-2.941l-.003-.002-.015-.027a7.106 7.106 0 01-.103-.172l-.025-.051a6.622 6.622 0 01-.642-4.996 6.624 6.624 0 012.887-3.906l.021-.021.19-.111a6.635 6.635 0 013.542-.891 14.292 14.292 0 01.035-3.446 14.144 14.144 0 011.77-5.227c.507-.878 1.12-1.71 1.826-2.481.473-.517.978-.995 1.51-1.429.425-.347.857-.602 1.329-.903.394-.25.938-.044 1.094.439.088.272.118.334.212.604l.283.81c.139.398.075.836-.425 1.155-.274.172-.452.3-.708.517-.348.294-.672.606-.971.933a11.077 11.077 0 00-1.412 1.936 11.01 11.01 0 00-1.384 4.066 10.98 10.98 0 00.237 4.088 6.628 6.628 0 012.147 2.26l.216.375v.031a6.646 6.646 0 01-1.411 7.762 16.278 16.278 0 007.232 3.021c3.249.5 6.647.021 9.726-1.506.207-.104.396-.211.593-.33.514-.297.932-.15 1.221.156l.587.625c.196.207.237.264.438.467.356.361.288.939-.116 1.174-.511.297-1.002.588-1.535.846z"/><path fill-rule="evenodd" clip-rule="evenodd" fill="#4BC1EC" d="M73.903 38.075a.322.322 0 01-.118-.111c-.051-.076-.044-.164-.004-.242l.017-.033a.257.257 0 01.202-.148.338.338 0 01.216.055.512.512 0 00.293.091.456.456 0 00.29-.098c.118-.086.202-.238.26-.371l.386-.861-1.799-4.076a.245.245 0 01.014-.219.245.245 0 01.206-.113h.106a.28.28 0 01.188.066.397.397 0 01.103.143l1.517 3.471 1.515-3.465a.326.326 0 01.095-.146.276.276 0 01.188-.068h.099a.233.233 0 01.207.125c.031.066.03.139.002.209l-2.264 5.105a1.916 1.916 0 01-.299.49 1.056 1.056 0 01-.376.283c-.14.059-.288.086-.438.084-.109 0-.218-.012-.324-.039a.912.912 0 01-.282-.132zm5.271-2.033a2.36 2.36 0 01-.519-.777 2.53 2.53 0 01-.187-.961c.001-.332.059-.656.187-.961a2.367 2.367 0 011.302-1.293c.313-.131.643-.188.98-.189.337.002.668.059.979.189a2.373 2.373 0 011.303 1.291c.127.307.185.631.187.963a2.53 2.53 0 01-.187.961 2.35 2.35 0 01-1.303 1.293c-.312.129-.643.188-.979.188s-.668-.059-.98-.188a2.393 2.393 0 01-.783-.516zm1.763.127c.257-.002.509-.045.747-.143a1.768 1.768 0 00.971-.983c.096-.236.138-.486.139-.74a1.984 1.984 0 00-.138-.74 1.768 1.768 0 00-.972-.983 1.987 1.987 0 00-.746-.143 1.967 1.967 0 00-.742.143c-.221.092-.418.221-.587.391s-.296.369-.387.592a1.947 1.947 0 00-.14.74c.001.254.043.504.14.74.091.223.219.42.387.59.169.172.366.301.588.393.236.098.486.141.74.143zm6.814-.029a1.814 1.814 0 01-.731.485 2.21 2.21 0 01-.739.121c-.248 0-.493-.041-.723-.135a1.661 1.661 0 01-.583-.383 1.754 1.754 0 01-.386-.604 2.168 2.168 0 01-.137-.777V32.23a.313.313 0 01.071-.191.273.273 0 01.194-.09h.075a.26.26 0 01.198.094.289.289 0 01.064.191v2.613c.001.244.047.486.165.701.105.191.25.346.44.455.2.117.424.164.653.166.202-.002.403-.033.592-.109a1.283 1.283 0 00.732-.732 1.51 1.51 0 00.103-.559v-2.535c0-.068.021-.133.063-.188a.265.265 0 01.203-.098h.065a.271.271 0 01.209.1.316.316 0 01.056.186v4.131a.271.271 0 01-.069.191.253.253 0 01-.198.084h-.052a.262.262 0 01-.199-.084.287.287 0 01-.068-.191v-.225h.002zm4.446-3.789a.248.248 0 01-.151.154.3.3 0 01-.207-.014.76.76 0 00-.149-.039.85.85 0 00-.558.091 1.14 1.14 0 00-.359.303 1.572 1.572 0 00-.255.482 2.023 2.023 0 00-.098.633v2.402a.275.275 0 01-.068.191.253.253 0 01-.198.084h-.07a.25.25 0 01-.196-.082.273.273 0 01-.07-.193v-4.131c0-.07.019-.137.063-.189a.261.261 0 01.202-.096h.066a.258.258 0 01.198.094.289.289 0 01.064.191v.211l.074-.088c.138-.15.301-.277.486-.365.185-.086.381-.129.585-.131.087 0 .175.006.262.02.086.014.17.037.247.07a.287.287 0 01.145.121c.04.072.034.156.011.232l-.004.01-.02.039zm3.679 3.603v2.016a.27.27 0 01-.068.191.26.26 0 01-.198.084h-.07a.263.263 0 01-.191-.08.297.297 0 01-.075-.193V32.23a.318.318 0 01.07-.191.278.278 0 01.195-.09h.075a.26.26 0 01.198.094.289.289 0 01.064.191v.41a2.18 2.18 0 01.905-.635c.269-.102.551-.146.838-.148.328.002.648.061.949.191.283.121.532.295.743.52.212.227.372.488.483.777.115.307.169.629.17.955a2.736 2.736 0 01-.17.955 2.366 2.366 0 01-.483.777c-.211.223-.46.398-.743.52a2.359 2.359 0 01-.949.189c-.288 0-.573-.047-.843-.15a2.151 2.151 0 01-.9-.641zm.11-2.416a2.148 2.148 0 00-.136.766c.002.26.041.518.134.762.084.219.204.418.366.588.157.164.343.291.553.379.222.094.458.135.698.137.246-.002.489-.045.715-.145.211-.094.396-.223.551-.393.158-.172.276-.371.356-.59a2.14 2.14 0 00.129-.738 2.113 2.113 0 00-.128-.732 1.834 1.834 0 00-.36-.594 1.65 1.65 0 00-.551-.395 1.834 1.834 0 00-1.407-.01 1.597 1.597 0 00-.553.379 1.698 1.698 0 00-.367.586zm5.396 1.014c.022.201.071.396.153.58.093.211.22.396.384.557a1.74 1.74 0 001.219.481c.191 0 .381-.031.563-.09a2.11 2.11 0 00.532-.252 1.88 1.88 0 00.434-.387l.003-.004.004-.004a.272.272 0 01.199-.096c.069 0 .133.023.185.068l.003.004.035.035a.256.256 0 01.091.217.3.3 0 01-.083.17 2.425 2.425 0 01-.549.486 2.628 2.628 0 01-.678.314 2.504 2.504 0 01-1.652-.059 2.278 2.278 0 01-1.277-1.262 2.633 2.633 0 01-.191-1.008c.001-.326.053-.65.165-.957.107-.289.264-.551.472-.777a2.206 2.206 0 011.666-.709c.25.002.502.035.74.117a2.023 2.023 0 011.061.822 2.508 2.508 0 01.438 1.404.38.38 0 01-.063.232c-.058.08-.147.113-.246.115h-3.608v.003zm.001-.576h3.292a1.816 1.816 0 00-.274-.791 1.454 1.454 0 00-.768-.653 1.695 1.695 0 00-.564-.094 1.754 1.754 0 00-.664.127 1.56 1.56 0 00-.523.348c-.152.154-.27.334-.355.533-.074.17-.12.348-.144.53zm5.362 2.066a2.36 2.36 0 01-.519-.777 2.53 2.53 0 01-.187-.961c.002-.332.06-.656.187-.961a2.367 2.367 0 011.302-1.293 2.54 2.54 0 01.98-.189c.337.002.668.059.98.189a2.373 2.373 0 011.302 1.291c.127.307.185.631.187.963a2.53 2.53 0 01-.187.961 2.35 2.35 0 01-1.303 1.293c-.312.129-.643.188-.979.188s-.668-.059-.979-.188a2.366 2.366 0 01-.784-.516zm1.763.127c.256-.002.509-.045.746-.143a1.768 1.768 0 00.971-.983c.096-.236.138-.486.139-.74a1.984 1.984 0 00-.138-.74c-.091-.223-.218-.422-.386-.592s-.366-.299-.586-.391a1.984 1.984 0 00-.746-.143 1.958 1.958 0 00-.741.143 1.78 1.78 0 00-.588.391c-.168.17-.296.369-.387.592a1.967 1.967 0 00-.141.74c.002.254.044.504.141.74.091.223.219.42.387.59.169.172.366.301.588.393.236.098.486.141.741.143zm4.19-.215v2.016a.275.275 0 01-.068.191.26.26 0 01-.198.084h-.07a.263.263 0 01-.191-.08.297.297 0 01-.075-.193V32.23a.318.318 0 01.07-.191.278.278 0 01.195-.09h.075a.26.26 0 01.198.094.289.289 0 01.064.191v.41a2.192 2.192 0 01.905-.635 2.39 2.39 0 01.838-.148c.328.002.647.061.948.191.284.121.533.295.744.52.212.227.372.488.483.777a2.759 2.759 0 01-.001 1.91c-.11.289-.271.551-.482.777-.211.223-.46.398-.743.52a2.365 2.365 0 01-.949.189c-.288 0-.573-.047-.843-.15a2.151 2.151 0 01-.9-.641zm.108-2.416a2.17 2.17 0 00-.135.766c.002.26.041.518.134.762.084.219.204.418.366.588.157.164.343.291.553.379.222.094.458.135.698.137a1.8 1.8 0 00.716-.145c.21-.094.395-.223.55-.393.158-.172.275-.371.356-.59a2.14 2.14 0 00.129-.738 2.09 2.09 0 00-.129-.732c-.083-.221-.2-.42-.359-.594a1.66 1.66 0 00-.551-.395 1.834 1.834 0 00-1.407-.01 1.62 1.62 0 00-.554.379 1.728 1.728 0 00-.367.586zm5.407 3.102a.25.25 0 01-.196-.082.273.273 0 01-.07-.193v-5.951a.24.24 0 01.047-.162.283.283 0 01.157-.102l.082-.027c.081-.025.168-.02.234.039.06.051.083.127.083.203v6a.275.275 0 01-.068.191.253.253 0 01-.198.084h-.071zm2.106-2.088c.023.201.071.396.154.58.093.211.22.396.383.557a1.744 1.744 0 001.22.481c.191 0 .38-.031.563-.09.188-.059.366-.143.531-.252.164-.105.31-.236.435-.387l.003-.004.003-.004a.273.273 0 01.199-.096.28.28 0 01.186.068l.003.004.034.035c.062.055.1.129.092.217a.307.307 0 01-.083.17 2.447 2.447 0 01-.549.486 2.628 2.628 0 01-.678.314 2.506 2.506 0 01-1.652-.059 2.282 2.282 0 01-1.278-1.262 2.814 2.814 0 01-.025-1.965 2.32 2.32 0 01.472-.777c.205-.223.451-.396.729-.52.295-.131.612-.188.936-.189.251.002.503.035.74.117a2.023 2.023 0 011.061.822c.098.139.178.285.243.441a2.508 2.508 0 01.196.963.388.388 0 01-.063.232.298.298 0 01-.246.115h-3.609v.003zm.002-.576h3.291a1.893 1.893 0 00-.599-1.186 1.466 1.466 0 00-.442-.258 1.703 1.703 0 00-.564-.094 1.76 1.76 0 00-.665.127c-.197.08-.373.197-.522.348a1.712 1.712 0 00-.356.533c-.075.17-.12.348-.143.53zm10.524 2.164a1.814 1.814 0 01-.732.485 2.203 2.203 0 01-.739.121 1.9 1.9 0 01-.722-.135 1.661 1.661 0 01-.583-.383 1.725 1.725 0 01-.386-.604 2.147 2.147 0 01-.137-.777V32.23a.312.312 0 01.07-.191.275.275 0 01.194-.09h.076a.26.26 0 01.198.094.294.294 0 01.064.191v2.613c.001.244.047.486.165.701.105.191.249.346.439.455.201.117.424.164.654.166.202-.002.403-.033.592-.109a1.283 1.283 0 00.732-.732 1.51 1.51 0 00.103-.559v-2.535a.3.3 0 01.063-.188.265.265 0 01.203-.098h.064a.268.268 0 01.209.1.316.316 0 01.056.186v4.131a.275.275 0 01-.068.191.253.253 0 01-.198.084h-.053a.26.26 0 01-.198-.084.287.287 0 01-.068-.191v-.225h.002zm2.658-3.659c.047-.051.096-.1.148-.146.177-.152.379-.268.599-.35.237-.086.488-.123.74-.125.347.002.684.07.989.238.285.156.51.379.669.664.171.305.237.648.24.996v2.605a.29.29 0 01-.063.189.259.259 0 01-.204.086h-.062a.262.262 0 01-.199-.084.291.291 0 01-.067-.191v-2.586a1.484 1.484 0 00-.169-.713 1.135 1.135 0 00-.462-.459 1.463 1.463 0 00-.707-.168 1.671 1.671 0 00-.601.107c-.169.066-.322.16-.451.291a1.222 1.222 0 00-.289.438 1.49 1.49 0 00-.104.555v2.535a.275.275 0 01-.068.191.253.253 0 01-.198.084h-.07a.25.25 0 01-.196-.082.273.273 0 01-.07-.193v-4.131c0-.07.019-.137.063-.189a.262.262 0 01.203-.096h.066a.26.26 0 01.198.094.294.294 0 01.064.191v.249h.001zm5.108-1.253a.477.477 0 01-.339-.141.477.477 0 01-.143-.34v-.01a.488.488 0 01.142-.342.488.488 0 01.344-.139.495.495 0 01.428.238.49.49 0 01.068.248.5.5 0 01-.069.246.476.476 0 01-.177.174.501.501 0 01-.246.064h-.008v.002zm-.022 5.412a.25.25 0 01-.196-.082.273.273 0 01-.07-.193v-4.131c0-.07.019-.137.063-.189a.26.26 0 01.201-.096h.067a.26.26 0 01.198.094.289.289 0 01.064.191v4.131a.275.275 0 01-.068.191.253.253 0 01-.198.084h-.061zm2.637-4.692h1.172c.07 0 .135.023.187.072a.267.267 0 01.08.193v.041a.267.267 0 01-.083.193.276.276 0 01-.184.07h-1.172v3.846a.275.275 0 01-.068.191.253.253 0 01-.198.084h-.07a.263.263 0 01-.191-.08.297.297 0 01-.075-.193v-3.848h-.496a.28.28 0 01-.19-.068.26.26 0 01-.086-.199v-.035a.26.26 0 01.276-.267h.496v-.172a2.18 2.18 0 01.115-.736 1.327 1.327 0 01.796-.83c.179-.064.367-.094.558-.094.133 0 .268.012.398.045.128.033.25.084.364.148a.31.31 0 01.128.123.242.242 0 010 .244l-.002.004-.027.047a.26.26 0 01-.188.135.327.327 0 01-.186-.035l-.004-.002-.004-.002a1.386 1.386 0 00-.168-.084.793.793 0 00-.313-.055c-.157-.002-.31.029-.446.107s-.232.199-.299.342c-.094.191-.118.434-.119.643v.172h-.001zm2.459-.72a.48.48 0 01-.482-.481v-.01a.488.488 0 01.142-.342.507.507 0 01.593-.075.48.48 0 01.246.422.49.49 0 01-.246.42.498.498 0 01-.245.064h-.008v.002zm-.022 5.412a.25.25 0 01-.196-.082.273.273 0 01-.07-.193v-4.131c0-.07.02-.137.063-.189a.261.261 0 01.202-.096h.066a.258.258 0 01.198.094.29.29 0 01.065.191v4.131a.271.271 0 01-.069.191.251.251 0 01-.198.084h-.061zm2.106-2.088c.022.201.071.396.153.58.093.211.22.396.384.557a1.74 1.74 0 001.219.481c.191 0 .381-.031.563-.09.188-.059.366-.143.531-.252.164-.105.31-.236.435-.387l.003-.004.004-.004a.271.271 0 01.198-.096.28.28 0 01.186.068l.003.004.035.035a.256.256 0 01.091.217.307.307 0 01-.083.17 2.447 2.447 0 01-.549.486 2.628 2.628 0 01-.678.314 2.506 2.506 0 01-1.652-.059 2.278 2.278 0 01-1.278-1.262 2.632 2.632 0 01-.19-1.008c.001-.326.052-.65.165-.957.107-.289.264-.551.472-.777a2.206 2.206 0 011.665-.709c.251.002.503.035.74.117a2.042 2.042 0 011.062.822 2.508 2.508 0 01.438 1.404.388.388 0 01-.063.232c-.058.08-.148.113-.246.115h-3.608v.003zm.001-.576h3.292a2.062 2.062 0 00-.075-.359 1.781 1.781 0 00-.2-.432 1.466 1.466 0 00-.767-.653 1.763 1.763 0 00-1.229.033c-.197.08-.372.197-.522.348a1.692 1.692 0 00-.355.533c-.075.17-.121.348-.144.53zm8.753 1.978a2.191 2.191 0 01-.904.643 2.351 2.351 0 01-.839.148c-.326 0-.646-.059-.944-.189a2.206 2.206 0 01-.745-.521 2.366 2.366 0 01-.484-.775 2.693 2.693 0 01-.172-.955c.001-.328.055-.65.172-.955.112-.289.272-.551.484-.777.211-.225.461-.398.744-.52.3-.131.619-.189.945-.191.285.002.565.047.832.146a2.21 2.21 0 01.911.635v-2.232c0-.063.017-.121.058-.168a.324.324 0 01.148-.092l.087-.027c.08-.025.166-.02.229.039a.257.257 0 01.081.203v6a.275.275 0 01-.068.191.253.253 0 01-.198.084h-.07a.265.265 0 01-.192-.08.296.296 0 01-.074-.193v-.414h-.001zm-1.725.215c.24-.002.477-.043.698-.137.21-.088.396-.215.553-.379.162-.17.282-.369.366-.59.095-.242.132-.502.134-.76a2.15 2.15 0 00-.134-.766 1.735 1.735 0 00-.365-.588 1.623 1.623 0 00-.549-.377 1.802 1.802 0 00-.694-.135 1.806 1.806 0 00-.717.145 1.669 1.669 0 00-.553.395 1.8 1.8 0 00-.36.594c-.09.234-.128.48-.13.732.002.252.04.5.128.736.084.221.202.418.36.592.156.17.341.299.552.393.226.1.466.143.711.145z"/><path fill-rule="evenodd" clip-rule="evenodd" fill="#FFF" d="M140.337 8.392c-.274.072-.343.08-.618.145l-.827.195c-.407.096-.739.383-.739.971V24.563c0 .357.332.65.739.65H140.547a.74.74 0 00.739-.738V11.303 9.075c.001-.464-.461-.81-.949-.683zm9.454 17.129c2.404-.006 4.251-.639 5.453-1.963a.6.6 0 00-.069-.801c-.238-.24-.478-.479-.717-.717-.236-.236-.583-.321-.904-.064-2.617 2.188-6.184 1.358-6.792-1.936h8.251c.516 0 .876-.193.894-.719-.07-4.146-2.833-6.199-6.115-6.199-3.212 0-6.092 2.538-6.092 6.199-.001 3.66 2.879 6.2 6.091 6.2zm-3.041-7.411c.691-3.783 5.727-3.341 6.104 0h-6.104zm-49.974 1.211c0-2.136.987-4.054 2.822-5.189 2.215-1.37 5.544-1.539 8.037.697.431.393.535.792.171 1.157l-.85.85c-.475.456-.813.294-1.223-.08-1.468-1.252-3.273-1.117-4.446-.276-.912.655-1.387 1.765-1.387 2.841s.475 2.186 1.387 2.84c1.173.842 2.979.977 4.446-.275.41-.375.748-.536 1.223-.08l.85.849c.364.365.26.766-.171 1.158-2.493 2.234-5.822 2.066-8.037.695-1.835-1.134-2.822-3.051-2.822-5.187zm27.951 0c0-2.136.986-4.054 2.821-5.189 2.215-1.37 5.545-1.539 8.037.697.432.393.536.792.171 1.157l-.85.85c-.475.456-.812.294-1.222-.08-1.469-1.252-3.273-1.117-4.446-.276-.913.655-1.387 1.765-1.387 2.841s.474 2.186 1.387 2.84c1.173.842 2.978.977 4.446-.275.41-.375.747-.536 1.222-.08l.85.849c.365.365.261.766-.171 1.158-2.492 2.234-5.822 2.066-8.037.695-1.835-1.134-2.821-3.051-2.821-5.187zm-14.54-3.32v8.561c0 .357.333.65.74.65h1.654c.407 0 .74-.332.74-.738V14.047a.742.742 0 00-.74-.74h-1.654c-.407 0-.74.293-.74.652v2.042zm6.262 0v8.561c0 .357.333.65.74.65h1.654c.407 0 .74-.332.74-.738v-5.751c0-1.948 1.203-3.296 3.204-2.783.651.195 1.034.097 1.166-.357.116-.435.248-.913.364-1.347.122-.455-.127-.754-.568-.888-2.188-.607-3.604.128-4.589 1.617v-.785a.874.874 0 00-.871-.872h-.969a.875.875 0 00-.872.872v1.821h.001z"/><path fill-rule="evenodd" clip-rule="evenodd" fill="#E42271" d="M111.754 11.327a2.028 2.028 0 10-.002-4.056 2.028 2.028 0 00.002 4.056z"/><path fill-rule="evenodd" clip-rule="evenodd" fill="#FFF" d="M77.852 23.71v.85c0 .359.333.652.741.652h.372a.741.741 0 00.741-.738V14.04a.742.742 0 00-.741-.74h-.372c-.408 0-.741.293-.741.652v.96c-1.058-1.102-2.537-1.782-4.244-1.782-3.442 0-5.961 2.768-5.961 6.181s2.519 6.181 5.961 6.181c1.706-.001 3.186-.68 4.244-1.782zm14.988-8.85h3.134c.298 0 .541-.276.541-.614v-.308a.615.615 0 00-.613-.614H92.84c0-1.407.067-2.417 1.093-3.038.518-.313 1.423-.494 2.308-.049.373.195.682.166.82-.116l.271-.565c.117-.262-.021-.539-.296-.702-1.685-.845-3.81-.573-5.005.721-.793.857-1.043 1.979-1.043 3.749H84.69c0-1.407.067-2.417 1.092-3.038.519-.313 1.424-.494 2.309-.049.373.195.682.166.82-.116l.271-.565c.117-.262-.021-.539-.296-.702-1.685-.845-3.81-.573-5.006.721-.792.857-1.042 1.979-1.042 3.749h-1.369a.615.615 0 00-.614.614v.308c0 .338.243.614.541.614h1.442v9.706c0 .355.29.645.646.645h.654a.554.554 0 00.553-.553V14.86h6.297v9.706c0 .355.29.645.646.645h.654a.554.554 0 00.553-.553V14.86h-.001zm-35.843 1.035c.213.266.538.293.789.085l.429-.399c.256-.27.195-.553-.016-.801-2.462-2.722-7.359-1.904-7.655 1.381-.13 1.836 1.315 2.805 2.909 3.394 1.116.413 2.197.847 2.785 1.494.732.805.532 1.901-.393 2.458-1.184.713-3.315.465-4.666-1.059-.205-.23-.446-.332-.723-.145l-.371.309c-.398.318-.35.703-.011 1.053 2.924 2.994 8.027 2.09 8.441-1.037.317-1.693-.75-3.078-2.487-3.804-1.891-.791-3.982-1.392-3.531-3.005.606-1.525 3.248-1.388 4.5.076zm5.893-6.702c-.162.042-.202.047-.365.085l-.489.115c-.24.057-.437.226-.437.573v3.358h-1.352a.615.615 0 00-.613.614v.308c0 .338.243.614.541.614H61.6v6.872c0 1.5.471 2.457 1.328 3.099 1.252.939 3.286.914 4.64-.191.23-.201.181-.441.039-.688l-.215-.373c-.164-.285-.438-.32-.796-.125-.708.447-1.722.51-2.268.158-.581-.373-.875-.998-.875-1.906V14.86h3.152c.297 0 .541-.276.541-.614v-.308a.616.616 0 00-.613-.614h-3.079v-2.413-1.316c-.002-.273-.275-.477-.564-.402zm10.881 14.628c2.581 0 4.263-2.019 4.263-4.51 0-2.49-1.683-4.51-4.263-4.51s-4.263 2.02-4.263 4.51c0 2.491 1.683 4.51 4.263 4.51z"/></svg>