<?xml version="1.0" encoding="UTF-8"?> <svg xmlns="http://www.w3.org/2000/svg" xmlns:xlink="http://www.w3.org/1999/xlink" width="150pt" height="150pt" viewBox="0 0 150 150" version="1.1"><g id="surface1"><path style=" stroke:none;fill-rule:nonzero;fill:rgb(27.843137%,75.686275%,94.509804%);fill-opacity:1;" d="M 113.8125 103.773438 C 110.898438 108.773438 111.925781 115.136719 116.265625 118.96875 C 120.605469 122.800781 127.046875 123.027344 131.648438 119.515625 C 136.25 116.003906 137.726562 109.726562 135.175781 104.53125 C 132.621094 99.335938 126.753906 96.667969 121.160156 98.160156 C 118.0625 98.980469 115.417969 101 113.8125 103.773438 Z M 104.035156 120.628906 C 92.683594 129.050781 78.230469 132.113281 64.4375 129.023438 C 62.097656 128.507812 59.800781 127.824219 57.5625 126.976562 C 55.851562 126.277344 54.1875 125.476562 52.574219 124.574219 C 51.144531 123.839844 50.820312 121.847656 51.996094 120.53125 C 52.65625 119.796875 52.792969 119.601562 53.433594 118.855469 L 55.367188 116.617188 C 56.316406 115.515625 57.738281 114.949219 59.554688 115.882812 C 60.441406 116.363281 61.363281 116.773438 62.316406 117.105469 C 63.777344 117.628906 65.265625 118.0625 66.78125 118.398438 C 79.210938 121.15625 92.199219 117.488281 101.351562 108.636719 C 101.535156 105.007812 102.582031 101.472656 104.402344 98.328125 L 104.402344 98.308594 C 109.71875 89.09375 120.675781 84.746094 130.863281 87.808594 C 133.289062 66.808594 123.734375 46.222656 106.128906 34.523438 C 105.472656 34.078125 104.824219 33.703125 104.128906 33.316406 C 102.351562 32.292969 102.066406 30.789062 102.484375 29.398438 C 102.773438 28.457031 103.054688 27.507812 103.339844 26.566406 C 103.621094 25.621094 103.707031 25.402344 103.976562 24.453125 C 104.445312 22.785156 106.289062 21.976562 107.671875 22.785156 C 109.441406 23.804688 111.164062 24.769531 112.847656 25.917969 C 134.933594 41.007812 145.960938 67.761719 140.917969 94.03125 C 147.050781 100.515625 148.863281 109.972656 145.566406 118.265625 C 142.269531 126.5625 134.460938 132.191406 125.546875 132.699219 C 116.636719 133.207031 108.238281 128.5 104.019531 120.632812 Z M 104.035156 120.628906 "></path><path style=" stroke:none;fill-rule:nonzero;fill:rgb(98.823529%,74.509804%,0%);fill-opacity:1;" d="M 75 36.507812 C 80.75 36.507812 85.691406 32.445312 86.8125 26.808594 C 87.933594 21.171875 84.914062 15.53125 79.605469 13.332031 C 74.296875 11.136719 68.171875 12.992188 64.980469 17.773438 C 61.789062 22.550781 62.417969 28.917969 66.480469 32.980469 C 68.738281 35.242188 71.804688 36.511719 75 36.507812 Z M 94.503906 36.582031 C 98.144531 38.179688 101.578125 40.207031 104.730469 42.628906 C 112.691406 48.707031 118.570312 57.105469 121.558594 66.667969 C 122.277344 68.953125 122.835938 71.285156 123.222656 73.648438 C 123.464844 75.476562 123.601562 77.316406 123.625 79.160156 C 123.695312 80.769531 122.15625 82.042969 120.429688 81.675781 C 119.460938 81.46875 119.222656 81.449219 118.257812 81.265625 L 115.351562 80.710938 C 113.921875 80.445312 112.722656 79.496094 112.632812 77.453125 C 112.605469 76.445312 112.496094 75.4375 112.308594 74.445312 C 112.035156 72.921875 111.667969 71.414062 111.207031 69.933594 C 107.382812 57.792969 97.71875 48.382812 85.480469 44.882812 C 79.207031 48.101562 71.800781 48.257812 65.390625 45.308594 C 58.984375 42.355469 54.289062 36.625 52.65625 29.765625 C 33.269531 38.167969 20.222656 56.722656 18.882812 77.808594 C 18.828125 78.601562 18.828125 79.351562 18.839844 80.148438 C 18.839844 82.195312 17.679688 83.191406 16.269531 83.527344 L 13.386719 84.207031 C 12.429688 84.433594 12.191406 84.460938 11.238281 84.710938 C 9.539062 85.152344 7.929688 83.949219 7.929688 82.339844 C 7.929688 80.292969 7.902344 78.316406 8.054688 76.28125 C 10.082031 49.621094 27.730469 26.699219 52.988281 17.925781 C 55.539062 9.363281 62.824219 3.058594 71.664062 1.761719 C 80.503906 0.464844 89.292969 4.414062 94.191406 11.882812 C 99.09375 19.355469 99.21875 28.988281 94.511719 36.582031 Z M 94.503906 36.582031 "></path><path style=" stroke:none;fill-rule:nonzero;fill:rgb(90.588235%,15.294118%,45.490196%);fill-opacity:1;" d="M 36.171875 103.761719 C 32.828125 98.011719 25.472656 96.042969 19.703125 99.351562 C 14.191406 102.558594 12.105469 109.484375 14.929688 115.203125 L 15 115.273438 L 15.28125 115.828125 C 18.621094 121.582031 25.980469 123.554688 31.75 120.238281 C 37.507812 116.902344 39.480469 109.53125 36.160156 103.765625 L 36.160156 103.746094 Z M 104.082031 141.863281 C 79.976562 153.449219 51.292969 149.625 31.066406 132.125 C 21.480469 134.414062 11.503906 130.332031 6.277344 121.976562 L 6.226562 121.882812 C 6.105469 121.6875 5.984375 121.492188 5.859375 121.289062 L 5.769531 121.117188 C -0.292969 110.457031 3.121094 96.910156 13.515625 90.398438 L 13.59375 90.324219 L 14.246094 89.957031 C 17.949219 87.804688 22.179688 86.730469 26.457031 86.859375 C 24.835938 72.820312 29.410156 58.769531 38.984375 48.375 C 40.601562 46.609375 42.34375 44.960938 44.195312 43.441406 C 45.660156 42.3125 47.191406 41.273438 48.777344 40.332031 C 50.132812 39.464844 52.015625 40.171875 52.550781 41.839844 C 52.859375 42.78125 52.960938 42.996094 53.289062 43.925781 C 53.613281 44.855469 53.9375 45.789062 54.261719 46.722656 C 54.738281 48.089844 54.519531 49.605469 52.792969 50.703125 C 51.929688 51.234375 51.117188 51.828125 50.351562 52.492188 C 49.179688 53.492188 48.070312 54.566406 47.035156 55.710938 C 38.429688 65.09375 35.113281 78.175781 38.21875 90.523438 C 41.273438 92.496094 43.8125 95.167969 45.625 98.320312 L 46.359375 99.617188 L 46.359375 99.726562 C 50.78125 108.753906 48.808594 119.609375 41.492188 126.507812 C 58.460938 139.101562 81.058594 141.121094 99.988281 131.730469 C 100.703125 131.363281 101.355469 130.996094 102.035156 130.597656 C 103.808594 129.570312 105.253906 130.078125 106.25 131.136719 L 108.277344 133.289062 C 108.953125 134.007812 109.097656 134.203125 109.785156 134.902344 C 111.019531 136.148438 110.78125 138.144531 109.386719 138.945312 C 107.617188 139.972656 105.917969 140.980469 104.082031 141.863281 Z M 104.082031 141.863281 "></path></g></svg> 